<svg xmlns="http://www.w3.org/2000/svg" width="98" height="98" fill="none"><g fill="#396C03" clip-path="url(#a)" filter="url(#b)"><path d="M93.962 36.271c-.291 1.76-.5 3.528-.886 5.274-3.084 13.845-14.982 24.481-29.13 26.088-17.006 1.933-32.555-8.65-36.977-25.169-4.151-15.536 3.712-32.35 18.326-39.16A33.992 33.992 0 0 1 57.021.14c.17-.03.336-.076.496-.139h4.754c1.153.172 2.308.322 3.458.515C79.11 2.747 90.14 13.15 93.076 26.345c.392 1.762.597 3.563.886 5.346v4.58ZM57.348 16.91v19.64h19.657v-5.266H62.57V16.91h-5.222ZM30.142 67.464 14.04 83.68 10.4 80.029l16.064-16.23 3.678 3.665ZM40.506 69.88l3.573 3.509-13.904 14.033-3.58-3.559L40.506 69.88ZM10.078 67.412 6.55 63.928c4.632-4.67 9.275-9.347 13.93-14.03l3.528 3.502-13.93 14.012ZM7.641 50.003 4 46.383l12.671-12.747c1.226 1.219 2.46 2.442 3.618 3.59L7.641 50.003ZM47.711 90l-3.644-3.59 12.728-12.786 3.59 3.578L47.71 90Z"/></g><defs><clipPath id="a"><path fill="#fff" d="M4 0h89.962v90H4z"/></clipPath><filter id="b" width="97.962" height="98" x="0" y="0" color-interpolation-filters="sRGB" filterUnits="userSpaceOnUse"><feFlood flood-opacity="0" result="BackgroundImageFix"/><feColorMatrix in="SourceAlpha" result="hardAlpha" values="0 0 0 0 0 0 0 0 0 0 0 0 0 0 0 0 0 0 127 0"/><feOffset dy="4"/><feGaussianBlur stdDeviation="2"/><feComposite in2="hardAlpha" operator="out"/><feColorMatrix values="0 0 0 0 0 0 0 0 0 0 0 0 0 0 0 0 0 0 0.25 0"/><feBlend in2="BackgroundImageFix" result="effect1_dropShadow_49_531"/><feBlend in="SourceGraphic" in2="effect1_dropShadow_49_531" result="shape"/></filter></defs></svg>