<svg xmlns="http://www.w3.org/2000/svg" width="72" height="90" fill="none"><g fill="#396C03" clip-path="url(#a)"><path d="M7.542 37.582c-5.867-.88-8.193-4.4-7.387-11.226H71.36c-.135 1.939 0 3.919-.467 5.75-.715 2.841-2.751 4.578-5.64 5.23-.46.102-.93.158-1.49.252v46.097c0 4.042-2.274 6.312-6.328 6.312H13.848c-4.036 0-6.304-2.285-6.304-6.339V38.97l-.002-1.387Zm16.837-2.529c-3.397 3.256-7.78 3.309-11.147.065-1.91.668-1.989 2.135-1.98 3.86.062 11.525.032 23.05.032 34.578v1.367H60.02V37.435c0-.69-.13-1.173-.772-1.522a7.192 7.192 0 0 1-1.091-.904c-3.473 3.35-7.855 3.291-11.25.038-3.493 3.25-7.688 3.303-11.27.03-3.557 3.27-7.752 3.235-11.257-.024Zm11.275 49.28c1.209 0 2.415.02 3.623 0 1.156-.024 1.936-.745 1.98-1.76.044-1.015-.745-1.927-1.933-1.948-2.45-.037-4.901-.037-7.354 0a1.86 1.86 0 0 0-1.933 1.842c-.014 1.065.795 1.851 1.995 1.878 1.2.026 2.414-.006 3.623-.006v-.006ZM63.761 11.194H7.602c0-2.171-.177-4.304.043-6.392C7.946 1.939 10.384.023 13.411 0H57.43c4.07 0 6.33 2.25 6.335 6.298l-.003 4.896Zm-28.218-3.7c1.244 0 2.487.024 3.731 0 1.173-.026 1.936-.742 1.983-1.76.047-1.017-.733-1.927-1.93-1.95a209.53 209.53 0 0 0-7.354 0 1.86 1.86 0 0 0-1.93 1.954c.05 1.026.818 1.736 1.986 1.76 1.167.023 2.344-.003 3.514-.003ZM.974 22.434c1.387-2.088 2.754-4.019 3.977-6.04.643-1.061 1.385-1.42 2.64-1.416 18.844.043 37.689.043 56.534 0 .968 0 1.517.293 2.021 1.103 1.32 2.106 2.722 4.159 4.19 6.353H.973Z"/><path d="M49.365 58.08H21.853c.112-.455.182-.88.314-1.265 1.76-5.153 5.28-8.383 10.584-9.61.812-.187 1.111-.477 1.035-1.29a5.89 5.89 0 0 1 .07-1.637 1.68 1.68 0 0 1 1.76-1.466c.954 0 1.575.49 1.819 1.425.036.142.06.286.07.431.056.757-.152 1.708.232 2.215.343.455 1.346.381 2.036.613 4.928 1.666 8.146 4.987 9.548 10.012a3.4 3.4 0 0 1 .073.425.623.623 0 0 1-.03.147ZM35.54 65.63H21.384a4.331 4.331 0 0 1-1.297-.135 1.713 1.713 0 0 1-1.273-1.936 1.76 1.76 0 0 1 1.64-1.645 7.26 7.26 0 0 1 .88-.021h29.301c1.065.067 1.836.792 1.883 1.76.047.968-.733 1.842-1.83 1.95-.293.02-.587.025-.88.015l-14.268.012Z"/></g><defs><clipPath id="a"><path fill="#fff" d="M0 0h71.359v90H0z"/></clipPath></defs></svg>