<svg xmlns="http://www.w3.org/2000/svg" width="72" height="90" fill="none"><g fill="#396C03" clip-path="url(#a)"><path d="M71.974 35.724c-.085 7.533-2.228 14.193-5.548 20.517-4.932 9.401-11.682 17.4-19.358 24.636-3.152 2.974-6.542 5.7-9.85 8.512-.963.816-1.474.806-2.42.063-10.47-8.215-19.744-17.548-26.829-28.895C4.339 54.744 1.537 48.57.481 41.725-1.194 30.86 1.502 21.143 8.55 12.728 14.27 5.903 21.62 1.702 30.42.438c12.749-1.83 23.64 2.066 32.345 11.58 6.179 6.76 9.088 14.883 9.208 23.706Zm-62.996.16c-.023 14.882 12.017 27.04 26.811 27.082a27.038 27.038 0 0 0 27.172-27.014C62.986 21.18 50.898 9.01 36.145 8.97c-14.99-.04-27.132 12-27.167 26.914Z"/><path d="M41.968 43.465c0-1.968-.022-3.938.015-5.906a1.374 1.374 0 0 0-.66-1.297c-4.635-3.34-5.218-10.552-1.215-14.636 2.766-2.824 6.835-2.869 9.614-.105 4.116 4.086 3.563 11.404-1.14 14.771a1.305 1.305 0 0 0-.628 1.22c.024 3.967.024 7.935 0 11.904a2.95 2.95 0 0 1-2.088 2.91 2.824 2.824 0 0 1-3.304-1.127 4.08 4.08 0 0 1-.574-1.923c-.067-1.935-.02-3.873-.02-5.81ZM23.975 37.527c-2.284-.276-3.828-1.375-4.39-3.628a3.466 3.466 0 0 1-.102-.834c0-3.965-.037-7.931.03-11.897a2.138 2.138 0 0 1 .846-1.502c.97-.634 2.093.188 2.108 1.475.023 2.125 0 4.256 0 6.371v.892h3.005v-6.357c0-.343-.015-.689 0-1.032.052-.9.633-1.502 1.447-1.537a1.472 1.472 0 0 1 1.542 1.552c.028 2.216 0 4.434 0 6.652v.727h3.005v-7.251c0-1.026.62-1.675 1.502-1.667.88.007 1.474.636 1.48 1.597.014 4.028.034 8.057 0 12.085a4.386 4.386 0 0 1-3.336 4.13c-.355.094-.718.154-1.139.251v6.36c0 1.842.02 3.687 0 5.527a2.992 2.992 0 1 1-5.98 0c-.023-3.622 0-7.248 0-10.87l-.018-1.044Z"/></g><defs><clipPath id="a"><path fill="#fff" d="M0 0h71.974v90H0z"/></clipPath></defs></svg>