<svg xmlns="http://www.w3.org/2000/svg" width="218" height="70" fill="none"><path fill="#fff" d="m17.39 35.8-4.082-.043a63.47 63.47 0 0 0-2.679.042c-.453 3.969-.68 7.186-.68 9.652 0 2.466.085 4.195.255 5.187-.907.056-1.502.085-1.786.085-1.615 0-2.777-.284-3.486-.85-.709-.567-1.063-1.56-1.063-2.977 0-1.445.397-4.89 1.19-10.331-.907.283-1.573.524-1.998.722a16.972 16.972 0 0 1-.085-1.403c0-1.955.893-3.174 2.679-3.656.538-3.883.864-7.242.978-10.077-1.446 0-2.367-.198-2.764-.595-.368-.397-.553-1.275-.553-2.636.114-1.275.227-2.112.34-2.508 3.203.425 6.718.637 10.545.637 3.826 0 7.525-.34 11.097-1.02-.397 2.976-2.211 4.762-5.443 5.357-1.757.34-4.266.567-7.525.68-.028.369-.44 3.671-1.233 9.907 1.644.056 2.764.085 3.359.085 2.692 0 4.606-.468 5.74-1.403.056.567.085.992.085 1.275 0 2.58-.964 3.87-2.892 3.87Zm20.047-7.101c-1.842 0-3.486 1.247-4.931 3.741-1.446 2.467-2.169 4.933-2.169 7.398 0 5.16 1.332 7.739 3.997 7.739 1.899 0 3.444-1.233 4.634-3.7 1.19-2.494 1.786-5.286 1.786-8.375 0-4.535-1.106-6.803-3.316-6.803Zm2.637-3.104c1.7 0 3.146.836 4.336 2.509 1.19 1.672 1.786 3.911 1.786 6.717 0 3.147-.638 6.038-1.913 8.674-1.418 2.976-3.43 5.031-6.038 6.165-1.474.652-3.09.978-4.847.978-2.466 0-4.62-.95-6.462-2.849-1.814-1.927-2.721-4.677-2.721-8.248 0-3.6.878-6.76 2.636-9.481 1.757-2.75 4.081-4.479 6.973-5.188.311 0 .595.1.85.298.283.17.425.354.425.553-2.863 1.984-4.578 4.748-5.144 8.29.595-1.587 1.318-2.961 2.168-4.123.879-1.163 1.786-2.041 2.721-2.637 1.786-1.105 3.529-1.658 5.23-1.658ZM63.678 28.7c-1.842 0-3.486 1.247-4.931 3.741-1.446 2.467-2.169 4.933-2.169 7.398 0 5.16 1.332 7.739 3.997 7.739 1.899 0 3.444-1.233 4.634-3.7 1.19-2.494 1.786-5.286 1.786-8.375 0-4.535-1.106-6.803-3.317-6.803Zm2.636-3.104c1.701 0 3.147.836 4.337 2.509 1.19 1.672 1.786 3.911 1.786 6.717 0 3.147-.638 6.038-1.913 8.674-1.418 2.976-3.43 5.031-6.038 6.165-1.474.652-3.09.978-4.847.978-2.466 0-4.62-.95-6.462-2.849-1.814-1.927-2.721-4.677-2.721-8.248 0-3.6.878-6.76 2.636-9.481 1.757-2.75 4.081-4.479 6.973-5.188.311 0 .595.1.85.298.283.17.425.354.425.553-2.863 1.984-4.578 4.748-5.145 8.29.596-1.587 1.319-2.961 2.169-4.123.879-1.163 1.786-2.041 2.72-2.637 1.787-1.105 3.53-1.658 5.23-1.658Zm16.08 15.817c0 3.373 1.02 5.06 3.061 5.06 1.077 0 2.126-.582 3.146-1.744s1.843-2.721 2.466-4.677a54.207 54.207 0 0 0 1.659-6.25 59.28 59.28 0 0 0 1.062-7.1c.397-4.819.596-8.575.596-11.267 0-2.721-.114-4.762-.34-6.123 2.04.454 3.472 1.418 4.294 2.891.822 1.474 1.233 3.33 1.233 5.57s-.482 6.406-1.446 12.5c-.935 6.094-1.403 10.544-1.403 13.35 0 2.807.128 5.188.383 7.143-2.013-.538-3.402-1.502-4.167-2.89-.737-1.418-1.105-3.19-1.105-5.316-.88 2.438-2.197 4.366-3.954 5.783-1.758 1.417-3.572 2.126-5.443 2.126-1.87 0-3.401-.709-4.592-2.126-1.162-1.446-1.743-3.557-1.743-6.335 0-4.394 1.205-8.163 3.614-11.31 2.41-3.174 5.258-4.762 8.546-4.762.936 0 2.41.227 4.422.68a12.188 12.188 0 0 0-4.72 2.382c-1.36 1.105-2.423 2.38-3.188 3.826-1.588 2.863-2.381 5.726-2.381 8.589Zm40.655-20.961v3.954h-7.866V50h-4.847V24.405h-7.908V20.45h20.621Zm7.375 3.018c-.879 0-1.616-.297-2.211-.892-.595-.596-.893-1.333-.893-2.211 0-.879.298-1.616.893-2.211.595-.595 1.332-.893 2.211-.893.85 0 1.573.298 2.168.893.595.595.893 1.332.893 2.21 0 .88-.298 1.616-.893 2.212a2.952 2.952 0 0 1-2.168.892Zm2.381 3.104V50h-4.847V26.573h4.847Zm34.722-.383c1.842 0 3.486.383 4.932 1.148 1.474.766 2.622 1.9 3.444 3.402.85 1.502 1.275 3.316 1.275 5.442V50h-4.804V36.905c0-2.098-.524-3.7-1.573-4.805-1.049-1.133-2.48-1.7-4.294-1.7-1.814 0-3.26.567-4.337 1.7-1.049 1.106-1.573 2.707-1.573 4.805V50h-4.805V36.905c0-2.098-.524-3.7-1.573-4.805-1.048-1.133-2.48-1.7-4.294-1.7-1.814 0-3.26.567-4.337 1.7-1.048 1.106-1.573 2.707-1.573 4.805V50h-4.847V26.573h4.847v2.679c.794-.964 1.8-1.715 3.019-2.254a9.571 9.571 0 0 1 3.911-.808c1.871 0 3.544.397 5.017 1.191 1.474.794 2.608 1.942 3.402 3.444.708-1.417 1.814-2.537 3.316-3.359a9.68 9.68 0 0 1 4.847-1.276Zm37.29 11.523c0 .878-.057 1.672-.17 2.38h-17.9c.142 1.871.837 3.374 2.084 4.507 1.247 1.134 2.778 1.701 4.592 1.701 2.607 0 4.45-1.091 5.527-3.274h5.229c-.708 2.154-1.998 3.926-3.869 5.315-1.842 1.36-4.138 2.04-6.887 2.04-2.24 0-4.252-.495-6.038-1.487-1.757-1.02-3.146-2.438-4.167-4.252-.992-1.843-1.488-3.968-1.488-6.378 0-2.409.482-4.52 1.446-6.335.992-1.842 2.367-3.26 4.124-4.251 1.786-.992 3.827-1.488 6.123-1.488 2.21 0 4.18.481 5.909 1.445 1.729.964 3.076 2.324 4.04 4.082.963 1.729 1.445 3.727 1.445 5.995Zm-5.059-1.531c-.029-1.786-.667-3.217-1.914-4.294-1.247-1.077-2.792-1.616-4.634-1.616-1.672 0-3.104.539-4.294 1.616-1.191 1.049-1.899 2.48-2.126 4.294h12.968Z"/><path fill="#FF8B00" d="M207.727 1.63h-2.961a.765.765 0 0 0-.766.767v16.958c0 .246.116.472.315.615l10.181 7.426a.764.764 0 0 0 1.067-.164l1.757-2.4v-.007a.765.765 0 0 0-.171-1.067l-8.663-6.263V2.397a.759.759 0 0 0-.759-.766Z"/></svg>