<svg xmlns="http://www.w3.org/2000/svg" width="30" height="30" fill="none"><path fill="#fff" d="M15 9.545A5.453 5.453 0 0 0 9.545 15 5.453 5.453 0 0 0 15 20.454 5.453 5.453 0 0 0 20.454 15 5.453 5.453 0 0 0 15 9.545Zm12.19 4.091A12.265 12.265 0 0 0 16.365 2.81V1.364C16.364.614 15.75 0 15 0c-.75 0-1.364.614-1.364 1.364v1.445A12.265 12.265 0 0 0 2.81 13.636H1.364C.614 13.636 0 14.25 0 15c0 .75.614 1.364 1.364 1.364h1.445A12.265 12.265 0 0 0 13.636 27.19v1.445c0 .75.614 1.364 1.364 1.364.75 0 1.364-.614 1.364-1.364v-1.445A12.265 12.265 0 0 0 27.19 16.364h1.445c.75 0 1.364-.614 1.364-1.364 0-.75-.614-1.364-1.364-1.364h-1.445ZM15 24.546A9.538 9.538 0 0 1 5.455 15 9.538 9.538 0 0 1 15 5.455 9.538 9.538 0 0 1 24.545 15 9.538 9.538 0 0 1 15 24.546Z"/></svg>