<svg xmlns="http://www.w3.org/2000/svg" width="25" height="25" fill="none"><path fill="#333" fill-opacity=".3" fill-rule="evenodd" d="M12.5 23.75c6.213 0 11.25-5.037 11.25-11.25S18.713 1.25 12.5 1.25 1.25 6.287 1.25 12.5 6.287 23.75 12.5 23.75Zm0 1.25C19.404 25 25 19.404 25 12.5S19.404 0 12.5 0 0 5.596 0 12.5 5.596 25 12.5 25Z" clip-rule="evenodd"/><path fill="#333" fill-rule="evenodd" d="M5.625 12.5c0-.345.28-.625.625-.625h12.5a.625.625 0 1 1 0 1.25H6.25a.625.625 0 0 1-.625-.625Z" clip-rule="evenodd"/><path fill="#333" fill-rule="evenodd" d="M12.5 5.625c.345 0 .625.28.625.625v12.5a.625.625 0 1 1-1.25 0V6.25c0-.345.28-.625.625-.625Z" clip-rule="evenodd"/></svg>