<svg xmlns="http://www.w3.org/2000/svg" width="243" height="89" fill="none"><rect width="242.138" height="88.122" fill="#090909" rx="13.301"/><path fill="#fff" d="M55.502 45.397c.048-3.724 2.04-7.246 5.199-9.197-1.993-2.857-5.332-4.67-8.806-4.778-3.704-.39-7.296 2.225-9.184 2.225-1.924 0-4.83-2.187-7.96-2.122-4.08.132-7.884 2.461-9.87 6.042-4.266 7.416-1.083 18.315 3.004 24.31 2.045 2.935 4.435 6.214 7.562 6.098 3.06-.127 4.203-1.959 7.897-1.959 3.66 0 4.732 1.96 7.922 1.885 3.284-.053 5.353-2.948 7.326-5.912a24.318 24.318 0 0 0 3.35-6.849c-3.859-1.639-6.436-5.537-6.44-9.743ZM49.475 27.48a10.82 10.82 0 0 0 2.459-7.732 10.924 10.924 0 0 0-7.077 3.676 10.387 10.387 0 0 0-2.523 7.445c2.736.028 5.426-1.249 7.141-3.39ZM164.649 41.551v4.512h-2.817v2.959h2.817v10.053c0 3.432 1.547 4.805 5.439 4.805.684 0 1.335-.081 1.905-.18v-2.925c-.489.049-.798.081-1.335.081-1.743 0-2.508-.817-2.508-2.68v-9.154h3.843v-2.96h-3.843v-4.51h-3.501ZM181.906 64.126c5.178 0 8.354-3.482 8.354-9.252 0-5.738-3.192-9.236-8.354-9.236-5.178 0-8.369 3.498-8.369 9.236 0 5.77 3.175 9.252 8.369 9.252Zm0-3.123c-3.044 0-4.754-2.239-4.754-6.13 0-3.857 1.71-6.113 4.754-6.113 3.029 0 4.755 2.256 4.755 6.114 0 3.874-1.726 6.13-4.755 6.13ZM192.976 63.782h3.501v-10.51c0-2.501 1.873-4.185 4.527-4.185.618 0 1.661.114 1.954.212v-3.465c-.375-.098-1.043-.147-1.564-.147-2.312 0-4.282 1.275-4.787 3.024h-.26v-2.73h-3.371v17.801ZM211.65 48.63c2.589 0 4.282 1.814 4.364 4.609h-8.956c.196-2.779 2.003-4.61 4.592-4.61Zm4.348 10.346c-.652 1.39-2.101 2.158-4.218 2.158-2.8 0-4.608-1.978-4.722-5.1v-.196h12.522v-1.226c0-5.59-2.98-8.974-7.914-8.974-4.999 0-8.174 3.612-8.174 9.301 0 5.688 3.11 9.187 8.191 9.187 4.054 0 6.887-1.962 7.685-5.15h-3.37ZM141.691 57.209c.27 4.37 3.899 7.166 9.299 7.166 5.772 0 9.384-2.93 9.384-7.607 0-3.676-2.059-5.71-7.055-6.879l-2.683-.66c-3.173-.746-4.455-1.745-4.455-3.49 0-2.203 1.991-3.643 4.978-3.643 2.835 0 4.793 1.406 5.148 3.66h3.679c-.22-4.118-3.831-7.015-8.776-7.015-5.316 0-8.86 2.897-8.86 7.252 0 3.591 2.008 5.726 6.413 6.76l3.139.762c3.223.763 4.641 1.88 4.641 3.745 0 2.168-2.228 3.744-5.266 3.744-3.257 0-5.518-1.474-5.839-3.795h-3.747ZM105.426 45.687c-2.409 0-4.494 1.21-5.568 3.236h-.26v-2.942h-3.371V69.7h3.5v-8.615h.277c.928 1.88 2.931 2.992 5.455 2.992 4.478 0 7.327-3.548 7.327-9.203 0-5.656-2.849-9.187-7.36-9.187Zm-.993 15.235c-2.931 0-4.77-2.321-4.77-6.032 0-3.727 1.839-6.048 4.786-6.048 2.964 0 4.739 2.272 4.739 6.032 0 3.776-1.775 6.048-4.755 6.048ZM125.036 45.687c-2.41 0-4.494 1.21-5.569 3.236h-.26v-2.942h-3.371V69.7h3.501v-8.615h.277c.928 1.88 2.931 2.992 5.455 2.992 4.478 0 7.327-3.548 7.327-9.203 0-5.656-2.849-9.187-7.36-9.187Zm-.993 15.235c-2.931 0-4.771-2.321-4.771-6.032 0-3.727 1.84-6.048 4.787-6.048 2.964 0 4.739 2.272 4.739 6.032 0 3.776-1.775 6.048-4.755 6.048ZM89.945 63.782h4.017L85.17 39.334h-4.067l-8.793 24.448h3.882l2.245-6.489h9.282l2.227 6.49Zm-7.003-20.009h.287l3.527 10.335h-7.359l3.545-10.335ZM72.212 22.09v9.663h3.476c2.868 0 4.53-1.774 4.53-4.861 0-3.041-1.675-4.802-4.53-4.802h-3.476Zm1.494 1.366h1.815c1.995 0 3.175 1.272 3.175 3.456 0 2.216-1.16 3.475-3.175 3.475h-1.815v-6.931ZM85.305 31.894c2.12 0 3.422-1.426 3.422-3.79 0-2.351-1.308-3.784-3.422-3.784-2.122 0-3.43 1.433-3.43 3.784 0 2.364 1.302 3.79 3.43 3.79Zm0-1.279c-1.248 0-1.948-.917-1.948-2.511 0-1.58.7-2.505 1.948-2.505 1.24 0 1.947.924 1.947 2.505 0 1.587-.707 2.511-1.947 2.511ZM99.805 24.46H98.37l-1.294 5.566h-.113l-1.495-5.566h-1.374L92.6 30.026h-.107l-1.3-5.566h-1.455l2.001 7.293h1.475l1.494-5.37h.113l1.501 5.37h1.488l1.995-7.293ZM101.456 31.753h1.434v-4.265c0-1.139.674-1.849 1.735-1.849s1.568.583 1.568 1.755v4.36h1.434v-4.722c0-1.734-.894-2.712-2.515-2.712-1.094 0-1.815.489-2.168 1.3h-.107v-1.16h-1.381v7.293ZM109.886 31.753h1.434V21.614h-1.434v10.14ZM116.714 31.894c2.121 0 3.422-1.426 3.422-3.79 0-2.351-1.307-3.784-3.422-3.784-2.121 0-3.429 1.433-3.429 3.784 0 2.364 1.301 3.79 3.429 3.79Zm0-1.279c-1.247 0-1.948-.917-1.948-2.511 0-1.58.701-2.505 1.948-2.505 1.241 0 1.948.924 1.948 2.505 0 1.587-.707 2.511-1.948 2.511ZM124.41 30.662c-.781 0-1.348-.382-1.348-1.038 0-.643.454-.985 1.454-1.052l1.775-.113v.609c0 .904-.801 1.594-1.881 1.594Zm-.367 1.212c.954 0 1.747-.415 2.181-1.145h.113v1.024h1.381v-4.982c0-1.54-1.027-2.451-2.848-2.451-1.648 0-2.822.803-2.969 2.056h1.388c.16-.516.714-.81 1.514-.81.981 0 1.488.435 1.488 1.205v.63l-1.968.113c-1.728.107-2.702.864-2.702 2.177 0 1.332 1.021 2.183 2.422 2.183ZM132.586 31.874c1 0 1.847-.476 2.281-1.272h.113v1.151h1.375V21.614h-1.435v4.005h-.106c-.394-.804-1.235-1.28-2.228-1.28-1.835 0-3.016 1.46-3.016 3.765 0 2.31 1.168 3.77 3.016 3.77Zm.406-6.242c1.201 0 1.955.958 1.955 2.478 0 1.527-.747 2.471-1.955 2.471-1.214 0-1.941-.93-1.941-2.477 0-1.534.734-2.472 1.941-2.472ZM145.655 31.894c2.122 0 3.422-1.426 3.422-3.79 0-2.351-1.307-3.784-3.422-3.784-2.121 0-3.429 1.433-3.429 3.784 0 2.364 1.301 3.79 3.429 3.79Zm0-1.279c-1.247 0-1.948-.917-1.948-2.511 0-1.58.701-2.505 1.948-2.505 1.241 0 1.948.924 1.948 2.505 0 1.587-.707 2.511-1.948 2.511ZM150.976 31.753h1.434v-4.265c0-1.139.674-1.849 1.735-1.849 1.06 0 1.567.583 1.567 1.755v4.36h1.435v-4.722c0-1.734-.894-2.712-2.515-2.712-1.094 0-1.815.489-2.168 1.3h-.107v-1.16h-1.381v7.293ZM163.752 22.646v1.848h-1.154v1.212h1.154v4.119c0 1.406.634 1.969 2.228 1.969.28 0 .547-.034.781-.074v-1.199c-.2.02-.327.034-.547.034-.714 0-1.028-.335-1.028-1.099v-3.75h1.575v-1.212h-1.575v-1.848h-1.434ZM168.686 31.753h1.434v-4.259c0-1.105.654-1.848 1.828-1.848 1.014 0 1.554.59 1.554 1.754v4.354h1.435v-4.709c0-1.734-.954-2.719-2.502-2.719-1.094 0-1.861.49-2.215 1.306h-.113v-4.018h-1.421v10.14ZM180.111 25.545c1.06 0 1.754.744 1.787 1.889h-3.669c.08-1.139.821-1.889 1.882-1.889Zm1.781 4.24c-.267.569-.861.884-1.728.884-1.147 0-1.888-.81-1.935-2.09v-.08h5.13v-.502c0-2.29-1.22-3.677-3.242-3.677-2.048 0-3.349 1.48-3.349 3.81 0 2.331 1.275 3.764 3.356 3.764 1.661 0 2.822-.803 3.149-2.11h-1.381Z"/></svg>