<svg xmlns="http://www.w3.org/2000/svg" width="237" height="89" fill="none"><rect width="236.433" height="88.122" fill="#090909" rx="13.301"/><g filter="url(#a)"><path fill="url(#b)" d="M23.598 22.314c-.511.543-.813 1.386-.813 2.476v38.978c0 1.093.302 1.934.813 2.477l.13.127 21.75-21.835v-.515l-21.75-21.836-.13.128Z"/><path fill="url(#c)" d="m52.726 51.817-7.249-7.28v-.515l7.25-7.279.164.094 8.59 4.9c2.453 1.398 2.453 3.688 0 5.09l-8.59 4.899-.165.091Z"/><g filter="url(#d)"><path fill="url(#e)" d="m52.891 51.724-7.415-7.445-21.878 21.965c.807.86 2.143.966 3.648.11l25.645-14.63Z"/></g><path fill="url(#f)" d="M52.891 36.835 27.246 22.207c-1.505-.858-2.84-.751-3.648.11l21.88 21.964 7.413-7.446Z"/></g><path fill="#fff" d="M118.485 46.412c-3.9 0-7.079 2.965-7.079 7.048 0 4.059 3.179 7.048 7.079 7.048 3.901 0 7.08-2.99 7.08-7.048-.002-4.083-3.181-7.048-7.08-7.048Zm0 11.322c-2.138 0-3.98-1.761-3.98-4.272 0-2.537 1.844-4.273 3.98-4.273 2.137 0 3.979 1.736 3.979 4.273 0 2.509-1.842 4.272-3.979 4.272Zm-15.444-11.322c-3.9 0-7.078 2.965-7.078 7.048 0 4.059 3.178 7.048 7.078 7.048 3.902 0 7.08-2.99 7.08-7.048 0-4.083-3.178-7.048-7.08-7.048Zm0 11.322c-2.137 0-3.98-1.761-3.98-4.272 0-2.537 1.844-4.273 3.98-4.273 2.137 0 3.98 1.736 3.98 4.273.001 2.509-1.843 4.272-3.98 4.272Zm-18.368-9.158v2.99h7.16c-.215 1.682-.775 2.91-1.63 3.764-1.042 1.04-2.672 2.189-5.53 2.189-4.407 0-7.853-3.552-7.853-7.957 0-4.405 3.446-7.956 7.853-7.956 2.377 0 4.114.935 5.395 2.136l2.11-2.11c-1.79-1.708-4.166-3.016-7.505-3.016-6.037 0-11.113 4.912-11.113 10.946S78.636 60.51 84.673 60.51c3.258 0 5.717-1.07 7.639-3.071 1.976-1.976 2.591-4.753 2.591-6.996 0-.692-.053-1.334-.16-1.867l-10.07.001Zm75.125 2.322c-.587-1.574-2.378-4.486-6.037-4.486-3.633 0-6.653 2.857-6.653 7.048 0 3.951 2.993 7.048 6.999 7.048 3.232 0 5.102-1.975 5.878-3.123l-2.404-1.603c-.801 1.175-1.897 1.949-3.474 1.949-1.575 0-2.698-.72-3.419-2.136l9.43-3.898-.32-.799Zm-9.617 2.35c-.08-2.724 2.11-4.111 3.687-4.111 1.229 0 2.27.614 2.618 1.494l-6.305 2.617Zm-7.666 6.835h3.098V39.365h-3.098v20.718Zm-5.077-12.095h-.106c-.695-.829-2.031-1.576-3.712-1.576-3.527 0-6.759 3.097-6.759 7.076 0 3.951 3.232 7.022 6.759 7.022 1.683 0 3.017-.747 3.712-1.6h.106v1.014c0 2.696-1.442 4.138-3.765 4.138-1.897 0-3.073-1.36-3.554-2.51l-2.697 1.123c.774 1.867 2.83 4.164 6.251 4.164 3.633 0 6.705-2.136 6.705-7.343V46.841h-2.938l-.002 1.147Zm-3.551 9.746c-2.138 0-3.927-1.79-3.927-4.246 0-2.484 1.789-4.298 3.927-4.298 2.109 0 3.765 1.814 3.765 4.298 0 2.456-1.656 4.246-3.765 4.246Zm40.426-18.369h-7.414v20.718h3.093v-7.85h4.319c3.429 0 6.801-2.48 6.801-6.433 0-3.952-3.37-6.435-6.799-6.435Zm.079 9.985h-4.4V42.25h4.4c2.313 0 3.626 1.914 3.626 3.551 0 1.605-1.313 3.55-3.626 3.55Zm19.121-2.974c-2.24 0-4.559.986-5.519 3.172l2.745 1.145c.587-1.145 1.682-1.52 2.827-1.52 1.6 0 3.227.96 3.254 2.665v.214c-.561-.32-1.761-.8-3.227-.8-2.96 0-5.974 1.627-5.974 4.664 0 2.773 2.427 4.558 5.146 4.558 2.08 0 3.227-.933 3.947-2.027h.106v1.6h2.988v-7.944c.001-3.676-2.748-5.727-6.293-5.727Zm-.374 11.353c-1.012 0-2.426-.507-2.426-1.76 0-1.599 1.761-2.212 3.281-2.212 1.358 0 2 .293 2.826.693-.241 1.92-1.894 3.28-3.681 3.28Zm17.547-10.901-3.546 8.982h-.107l-3.681-8.982h-3.332l5.519 12.554-3.147 6.983h3.227l8.508-19.537h-3.441ZM182.82 60.083h3.093V39.365h-3.093v20.718ZM84.287 27.111c0 1.364-.411 2.449-1.235 3.26-.934.963-2.153 1.444-3.65 1.444-1.435 0-2.656-.488-3.659-1.464-1.003-.978-1.505-2.189-1.505-3.634 0-1.446.502-2.657 1.505-3.633 1.003-.978 2.224-1.467 3.658-1.467a5.21 5.21 0 0 1 2.04.409c.647.273 1.166.636 1.553 1.09l-.873.86c-.657-.774-1.563-1.16-2.721-1.16a3.817 3.817 0 0 0-2.716 1.084c-.763.723-1.144 1.662-1.144 2.816 0 1.153.38 2.092 1.144 2.815a3.817 3.817 0 0 0 2.716 1.083c1.11 0 2.036-.363 2.776-1.09.48-.473.759-1.132.833-1.977H79.4v-1.173h4.816c.05.255.072.501.072.737ZM91.924 23.033h-4.526v3.095h4.082v1.173h-4.082v3.095h4.526v1.201H86.12v-9.763h5.803v1.2ZM97.31 31.597h-1.278v-8.564h-2.777v-1.2h6.831v1.2h-2.777v8.564ZM105.027 31.597v-9.763h1.277v9.763h-1.277ZM111.969 31.597h-1.278v-8.564h-2.776v-1.2h6.83v1.2h-2.776v8.564ZM127.675 30.336c-.978.986-2.192 1.48-3.645 1.48-1.453 0-2.667-.494-3.643-1.48-.977-.986-1.464-2.193-1.464-3.62 0-1.428.487-2.635 1.464-3.621.976-.986 2.19-1.48 3.643-1.48 1.445 0 2.657.496 3.638 1.487.981.99 1.471 2.195 1.471 3.614 0 1.427-.489 2.634-1.464 3.62Zm-6.345-.818c.735.732 1.635 1.096 2.7 1.096 1.065 0 1.966-.366 2.7-1.096.736-.733 1.105-1.667 1.105-2.802 0-1.136-.369-2.07-1.105-2.803-.734-.732-1.635-1.096-2.7-1.096-1.065 0-1.965.366-2.7 1.096-.734.733-1.103 1.667-1.103 2.803 0 1.135.369 2.07 1.103 2.802ZM130.932 31.597v-9.763h1.553l4.831 7.594h.055l-.055-1.88v-5.714h1.277v9.763h-1.333l-5.055-7.963h-.054l.054 1.88v6.083h-1.273Z"/><path stroke="#fff" stroke-miterlimit="10" stroke-width=".068" d="M84.287 27.111c0 1.364-.411 2.449-1.235 3.26-.934.963-2.153 1.444-3.65 1.444-1.435 0-2.656-.488-3.659-1.464-1.003-.978-1.505-2.189-1.505-3.634 0-1.446.502-2.657 1.505-3.633 1.003-.978 2.224-1.467 3.658-1.467a5.21 5.21 0 0 1 2.04.409c.647.273 1.166.636 1.553 1.09l-.873.86c-.657-.774-1.563-1.16-2.721-1.16a3.817 3.817 0 0 0-2.716 1.084c-.763.723-1.144 1.662-1.144 2.816 0 1.153.38 2.092 1.144 2.815a3.817 3.817 0 0 0 2.716 1.083c1.11 0 2.036-.363 2.776-1.09.48-.473.759-1.132.833-1.977H79.4v-1.173h4.816c.05.255.072.501.072.737ZM91.924 23.033h-4.526v3.095h4.082v1.173h-4.082v3.095h4.526v1.201H86.12v-9.763h5.803v1.2ZM97.31 31.597h-1.278v-8.564h-2.777v-1.2h6.831v1.2h-2.777v8.564ZM105.027 31.597v-9.763h1.277v9.763h-1.277ZM111.969 31.597h-1.278v-8.564h-2.776v-1.2h6.83v1.2h-2.776v8.564ZM127.675 30.336c-.978.986-2.192 1.48-3.645 1.48-1.453 0-2.667-.494-3.643-1.48-.977-.986-1.464-2.193-1.464-3.62 0-1.428.487-2.635 1.464-3.621.976-.986 2.19-1.48 3.643-1.48 1.445 0 2.657.496 3.638 1.487.981.99 1.471 2.195 1.471 3.614 0 1.427-.489 2.634-1.464 3.62Zm-6.345-.818c.735.732 1.635 1.096 2.7 1.096 1.065 0 1.966-.366 2.7-1.096.736-.733 1.105-1.667 1.105-2.802 0-1.136-.369-2.07-1.105-2.803-.734-.732-1.635-1.096-2.7-1.096-1.065 0-1.965.366-2.7 1.096-.734.733-1.103 1.667-1.103 2.803 0 1.135.369 2.07 1.103 2.802ZM130.932 31.597v-9.763h1.553l4.831 7.594h.055l-.055-1.88v-5.714h1.277v9.763h-1.333l-5.055-7.963h-.054l.054 1.88v6.083h-1.273Z"/><defs><linearGradient id="b" x1="43.55" x2="13.973" y1="24.378" y2="53.84" gradientUnits="userSpaceOnUse"><stop stop-color="#00A0FF"/><stop offset=".007" stop-color="#00A1FF"/><stop offset=".26" stop-color="#00BEFF"/><stop offset=".512" stop-color="#00D2FF"/><stop offset=".76" stop-color="#00DFFF"/><stop offset="1" stop-color="#00E3FF"/></linearGradient><linearGradient id="c" x1="64.674" x2="22.196" y1="44.279" y2="44.279" gradientUnits="userSpaceOnUse"><stop stop-color="#FFE000"/><stop offset=".409" stop-color="#FFBD00"/><stop offset=".775" stop-color="orange"/><stop offset="1" stop-color="#FF9C00"/></linearGradient><linearGradient id="e" x1="48.864" x2="8.754" y1="48.322" y2="88.276" gradientUnits="userSpaceOnUse"><stop stop-color="#FF3A44"/><stop offset="1" stop-color="#C31162"/></linearGradient><linearGradient id="f" x1="18.088" x2="35.998" y1="9.341" y2="27.181" gradientUnits="userSpaceOnUse"><stop stop-color="#32A071"/><stop offset=".069" stop-color="#2DA771"/><stop offset=".476" stop-color="#15CF74"/><stop offset=".801" stop-color="#06E775"/><stop offset="1" stop-color="#00F076"/></linearGradient><filter id="a" width="40.536" height="45.331" x="22.785" y="21.614" color-interpolation-filters="sRGB" filterUnits="userSpaceOnUse"><feFlood flood-opacity="0" result="BackgroundImageFix"/><feBlend in="SourceGraphic" in2="BackgroundImageFix" result="shape"/><feColorMatrix in="SourceAlpha" result="hardAlpha" values="0 0 0 0 0 0 0 0 0 0 0 0 0 0 0 0 0 0 127 0"/><feOffset dy="-.264"/><feComposite in2="hardAlpha" k2="-1" k3="1" operator="arithmetic"/><feColorMatrix values="0 0 0 0 0 0 0 0 0 0 0 0 0 0 0 0 0 0 0.12 0"/><feBlend in2="shape" result="effect1_innerShadow_56_21"/><feColorMatrix in="SourceAlpha" result="hardAlpha" values="0 0 0 0 0 0 0 0 0 0 0 0 0 0 0 0 0 0 127 0"/><feOffset dy=".264"/><feComposite in2="hardAlpha" k2="-1" k3="1" operator="arithmetic"/><feColorMatrix values="0 0 0 0 1 0 0 0 0 1 0 0 0 0 1 0 0 0 0.25 0"/><feBlend in2="effect1_innerShadow_56_21" result="effect2_innerShadow_56_21"/></filter><filter id="d" width="29.294" height="22.666" x="23.598" y="44.279" color-interpolation-filters="sRGB" filterUnits="userSpaceOnUse"><feFlood flood-opacity="0" result="BackgroundImageFix"/><feBlend in="SourceGraphic" in2="BackgroundImageFix" result="shape"/><feColorMatrix in="SourceAlpha" result="hardAlpha" values="0 0 0 0 0 0 0 0 0 0 0 0 0 0 0 0 0 0 127 0"/><feOffset dy="-.264"/><feComposite in2="hardAlpha" k2="-1" k3="1" operator="arithmetic"/><feColorMatrix values="0 0 0 0 0 0 0 0 0 0 0 0 0 0 0 0 0 0 0.08 0"/><feBlend in2="shape" result="effect1_innerShadow_56_21"/></filter></defs></svg>