<svg xmlns="http://www.w3.org/2000/svg" width="29" height="30" fill="none"><path fill="#fff" d="M2.326 0c-.464 0-.909.186-1.237.517a1.772 1.772 0 0 0 0 2.496c.328.33.773.516 1.237.516h2.135l.534 2.157c.005.025.011.05.018.074l2.376 9.582-1.563 1.574c-2.205 2.224-.644 6.025 2.475 6.025h15.026c.464 0 .91-.186 1.237-.517a1.772 1.772 0 0 0 0-2.495 1.743 1.743 0 0 0-1.237-.517H8.301l1.75-1.765h11.526c.325 0 .643-.091.92-.264.276-.172.5-.419.645-.712l5.25-10.588a1.777 1.777 0 0 0-.077-1.716 1.739 1.739 0 0 0-1.488-.837H8.067l-.543-2.194a1.766 1.766 0 0 0-.62-.962A1.74 1.74 0 0 0 5.825 0h-3.5Zm22.751 27.353c0 .702-.277 1.375-.769 1.872a2.614 2.614 0 0 1-1.856.775 2.614 2.614 0 0 1-1.856-.775 2.658 2.658 0 0 1-.77-1.872c0-.702.277-1.375.77-1.872a2.614 2.614 0 0 1 1.856-.775c.696 0 1.364.279 1.856.775.492.497.77 1.17.77 1.872ZM8.452 30c.696 0 1.363-.279 1.856-.775.492-.497.769-1.17.769-1.872 0-.702-.277-1.375-.77-1.872a2.614 2.614 0 0 0-1.855-.775c-.697 0-1.364.279-1.857.775a2.658 2.658 0 0 0-.769 1.872c0 .702.277 1.375.77 1.872.492.496 1.16.775 1.856.775Z"/></svg>