<svg xmlns="http://www.w3.org/2000/svg" width="147" height="51" fill="none"><path fill="#396C03" d="m11.593 27.917-2.721-.029c-.775 0-1.37.01-1.786.029-.302 2.645-.453 4.79-.453 6.434 0 1.644.056 2.797.17 3.458-.605.038-1.002.057-1.19.057-1.078 0-1.853-.19-2.325-.567-.472-.378-.709-1.04-.709-1.984 0-.964.265-3.26.794-6.888-.605.19-1.049.35-1.332.482a11.321 11.321 0 0 1-.057-.935c0-1.304.595-2.117 1.786-2.438.359-2.589.576-4.828.652-6.718-.964 0-1.578-.132-1.843-.397-.245-.264-.368-.85-.368-1.757.075-.85.151-1.408.227-1.672 2.135.283 4.478.425 7.03.425 2.55 0 5.016-.227 7.397-.68-.264 1.984-1.474 3.174-3.628 3.571-1.172.227-2.844.378-5.017.454-.019.245-.293 2.447-.822 6.604a78.68 78.68 0 0 0 2.24.057c1.794 0 3.07-.312 3.826-.936.037.378.056.662.056.85 0 1.72-.642 2.58-1.927 2.58Zm13.365-4.734c-1.228 0-2.324.832-3.288 2.495-.963 1.644-1.445 3.288-1.445 4.932 0 3.439.888 5.158 2.664 5.158 1.266 0 2.296-.822 3.09-2.466.793-1.662 1.19-3.524 1.19-5.584 0-3.023-.737-4.535-2.21-4.535Zm1.758-2.069c1.133 0 2.097.558 2.89 1.672.794 1.115 1.191 2.608 1.191 4.479 0 2.098-.425 4.025-1.275 5.782-.945 1.984-2.287 3.354-4.025 4.11-.983.435-2.06.652-3.231.652-1.644 0-3.08-.633-4.309-1.899-1.21-1.285-1.814-3.118-1.814-5.499 0-2.4.586-4.507 1.758-6.32 1.171-1.834 2.72-2.986 4.648-3.459.208 0 .397.066.567.199.189.113.283.236.283.368-1.908 1.323-3.051 3.165-3.43 5.527.397-1.058.88-1.974 1.446-2.749.586-.775 1.19-1.36 1.814-1.757 1.19-.737 2.353-1.106 3.487-1.106Zm15.736 2.07c-1.228 0-2.324.83-3.288 2.494-.963 1.644-1.445 3.288-1.445 4.932 0 3.439.888 5.158 2.664 5.158 1.266 0 2.296-.822 3.09-2.466.793-1.662 1.19-3.524 1.19-5.584 0-3.023-.737-4.535-2.21-4.535Zm1.758-2.07c1.133 0 2.097.558 2.89 1.672.794 1.115 1.191 2.608 1.191 4.479 0 2.098-.425 4.025-1.275 5.782-.945 1.984-2.287 3.354-4.025 4.11-.983.435-2.06.652-3.231.652-1.644 0-3.08-.633-4.309-1.899-1.21-1.285-1.814-3.118-1.814-5.499 0-2.4.586-4.507 1.758-6.32 1.171-1.834 2.72-2.986 4.648-3.459.208 0 .397.066.567.199.189.113.283.236.283.368-1.908 1.323-3.051 3.165-3.43 5.527.398-1.058.88-1.974 1.446-2.749.586-.775 1.19-1.36 1.814-1.757 1.19-.737 2.353-1.106 3.487-1.106Zm10.72 10.544c0 2.25.68 3.373 2.04 3.373.718 0 1.417-.387 2.098-1.162.68-.775 1.228-1.814 1.644-3.118a36.14 36.14 0 0 0 1.105-4.166 39.5 39.5 0 0 0 .709-4.734c.264-3.212.396-5.716.396-7.511 0-1.814-.075-3.175-.226-4.082 1.36.303 2.314.945 2.862 1.928.548.982.822 2.22.822 3.713 0 1.493-.32 4.27-.963 8.333-.624 4.063-.936 7.03-.936 8.9 0 1.871.085 3.458.256 4.762-1.342-.359-2.268-1.001-2.778-1.927-.492-.945-.737-2.126-.737-3.543-.586 1.625-1.465 2.91-2.636 3.855-1.172.944-2.381 1.417-3.628 1.417-1.248 0-2.268-.473-3.062-1.417-.774-.964-1.162-2.372-1.162-4.224 0-2.929.803-5.442 2.41-7.54 1.606-2.116 3.505-3.174 5.697-3.174.623 0 1.606.151 2.948.453a8.127 8.127 0 0 0-3.147 1.588c-.907.737-1.615 1.587-2.125 2.55-1.059 1.91-1.588 3.818-1.588 5.726Zm27.103-13.974v2.636h-5.244v17.064h-3.231V20.32h-5.272v-2.636h13.747Zm4.916 2.013c-.586 0-1.077-.198-1.474-.595-.397-.397-.595-.888-.595-1.474s.198-1.077.595-1.474c.397-.397.888-.595 1.474-.595.567 0 1.049.198 1.446.595.397.397.595.888.595 1.474s-.198 1.077-.595 1.474a1.968 1.968 0 0 1-1.446.595Zm1.588 2.07v15.617h-3.232V21.766h3.231Zm23.148-.256c1.228 0 2.324.255 3.288.765a5.426 5.426 0 0 1 2.296 2.268c.567 1.001.85 2.21.85 3.628v9.212h-3.203v-8.73c0-1.398-.35-2.466-1.049-3.203-.699-.756-1.653-1.134-2.863-1.134-1.209 0-2.173.378-2.891 1.134-.699.737-1.048 1.805-1.048 3.203v8.73h-3.203v-8.73c0-1.398-.35-2.466-1.049-3.203-.699-.756-1.654-1.134-2.863-1.134-1.21 0-2.173.378-2.891 1.134-.7.737-1.049 1.805-1.049 3.203v8.73H92.78V21.766h3.231v1.786a5.372 5.372 0 0 1 2.013-1.502 6.378 6.378 0 0 1 2.607-.539c1.248 0 2.362.265 3.345.794a5.429 5.429 0 0 1 2.268 2.296c.472-.945 1.209-1.692 2.21-2.24a6.456 6.456 0 0 1 3.232-.85Zm24.86 7.681c0 .586-.038 1.115-.114 1.588h-11.933c.095 1.247.558 2.248 1.389 3.004.832.756 1.852 1.134 3.061 1.134 1.739 0 2.967-.727 3.685-2.182h3.487c-.473 1.436-1.333 2.617-2.58 3.543-1.228.907-2.759 1.36-4.592 1.36-1.492 0-2.834-.33-4.025-.992a7.414 7.414 0 0 1-2.777-2.834c-.662-1.229-.992-2.646-.992-4.252 0-1.606.321-3.014.963-4.224.662-1.228 1.578-2.173 2.75-2.834 1.19-.661 2.551-.992 4.081-.992 1.474 0 2.788.321 3.94.964a6.781 6.781 0 0 1 2.693 2.72c.643 1.154.964 2.486.964 3.997Zm-3.373-1.02c-.019-1.19-.444-2.145-1.276-2.863-.831-.718-1.861-1.077-3.089-1.077-1.115 0-2.069.36-2.863 1.077-.794.7-1.266 1.654-1.417 2.863h8.645Z"/><path fill="#FF8B00" d="M140.508.138h-1.974a.51.51 0 0 0-.511.51v11.306c0 .164.078.314.21.41l6.788 4.95a.509.509 0 0 0 .711-.108l1.172-1.6V15.6a.51.51 0 0 0-.114-.711l-5.776-4.176V.649a.506.506 0 0 0-.506-.511Z"/></svg>